# xmcd CD database file
#
# Track frame offsets:
#	150
#	19808
#	38518
#	56695
#	73880
#	101110
#	118580
#	138450
#	157580
#	178375
#
# Disc length: 2735 seconds
#
# Revision: 0
# Processed by: cddbd v1.4PL0 Copyright (c) Steve Scherf et al.
# Submitted via: CDex 1.51
#
DISCID=880aad0a
DTITLE=Clarence Carter - Messin' With My Mind
DYEAR=1987
DGENRE=Blues
TTITLE0=Messin' With My Mind
TTITLE1=So You're Leaving Me
TTITLE2=Hot Stuff
TTITLE3=Fast Young Lady
TTITLE4=Wrong Too Long
TTITLE5=Girl From Soweto
TTITLE6=Sweet Feeling
TTITLE7=I Was In The Neighborhood
TTITLE8=It Ain't What You Do
TTITLE9=Love Me With A Feeling
EXTD=YEAR: 1987
EXTT0=
EXTT1=
EXTT2=
EXTT3=
EXTT4=
EXTT5=
EXTT6=
EXTT7=
EXTT8=
EXTT9=
PLAYORDER=
